<svg xmlns="http://www.w3.org/2000/svg" version="1.1" xmlns:xlink="http://www.w3.org/1999/xlink" viewBox="0 0 200 200"><rect width="200" height="200" fill="url('#gradient')"></rect><defs><linearGradient id="gradient" gradientTransform="rotate(45 0.5 0.5)"><stop offset="0%" stop-color="#aad86a"></stop><stop offset="100%" stop-color="#99b8a5"></stop></linearGradient></defs><g><g fill="#2c2c35" transform="matrix(3.28892096715987,0,0,3.28892096715987,7.466441621482701,123.37215851532858)" stroke="#9e837a" stroke-width="0.25"><path d="M5.75 0L1.07 0L1.07-14.22L5.65-14.22Q7.54-14.22 9.04-13.36Q10.55-12.51 11.39-10.95Q12.24-9.39 12.25-7.46L12.25-7.46L12.25-6.81Q12.25-4.85 11.42-3.31Q10.60-1.76 9.10-0.88Q7.60-0.01 5.75 0L5.75 0ZM5.65-11.57L4.50-11.57L4.50-2.64L5.69-2.64Q7.17-2.64 7.96-3.69Q8.75-4.74 8.75-6.81L8.75-6.81L8.75-7.42Q8.75-9.48 7.96-10.53Q7.17-11.57 5.65-11.57L5.65-11.57ZM19.78 0L14.00 0L14.00-14.22L19.11-14.22Q21.86-14.22 23.29-13.21Q24.72-12.21 24.72-10.29L24.72-10.29Q24.72-9.19 24.21-8.41Q23.70-7.63 22.71-7.26L22.71-7.26Q23.83-6.96 24.42-6.16Q25.02-5.36 25.02-4.21L25.02-4.21Q25.02-2.12 23.70-1.07Q22.37-0.02 19.78 0L19.78 0ZM19.83-6.04L17.43-6.04L17.43-2.64L19.68-2.64Q20.61-2.64 21.10-3.06Q21.60-3.49 21.60-4.26L21.60-4.26Q21.60-6.04 19.83-6.04L19.83-6.04ZM17.43-11.57L17.43-8.29L19.22-8.29Q20.34-8.30 20.82-8.70Q21.30-9.10 21.30-9.88L21.30-9.88Q21.30-10.78 20.78-11.18Q20.26-11.57 19.11-11.57L19.11-11.57L17.43-11.57ZM26.90-14.22L31.41-14.22L34.58-4.33L37.74-14.22L42.26-14.22L42.26 0L38.82 0L38.82-3.32L39.15-10.12L35.71 0L33.45 0L30-10.13L30.33-3.32L30.33 0L26.90 0L26.90-14.22ZM51.77-3.78L51.77-3.78Q51.77-4.53 51.24-4.95Q50.70-5.37 49.37-5.82Q48.03-6.27 47.18-6.69L47.18-6.69Q44.41-8.05 44.41-10.42L44.41-10.42Q44.41-11.60 45.10-12.50Q45.79-13.41 47.05-13.91Q48.31-14.41 49.88-14.41L49.88-14.41Q51.42-14.41 52.63-13.87Q53.85-13.32 54.52-12.31Q55.20-11.30 55.20-10L55.20-10L51.78-10Q51.78-10.87 51.25-11.35Q50.71-11.83 49.80-11.83L49.80-11.83Q48.89-11.83 48.35-11.42Q47.82-11.02 47.82-10.39L47.82-10.39Q47.82-9.84 48.41-9.40Q48.99-8.96 50.47-8.48Q51.94-8.01 52.89-7.46L52.89-7.46Q55.20-6.13 55.20-3.80L55.20-3.80Q55.20-1.93 53.79-0.87Q52.38 0.20 49.93 0.20L49.93 0.20Q48.20 0.20 46.80-0.42Q45.40-1.04 44.69-2.12Q43.98-3.20 43.98-4.61L43.98-4.61L47.42-4.61Q47.42-3.47 48.01-2.92Q48.60-2.38 49.93-2.38L49.93-2.38Q50.78-2.38 51.27-2.75Q51.77-3.12 51.77-3.78Z"></path></g></g></svg>